<svg id="Capa_1" fill='white' enable-background="new 0 0 504.928 504.928" height="512" viewBox="0 0 504.928 504.928" width="512" xmlns="http://www.w3.org/2000/svg"><g><g><path d="m195.764 153.542c-20.378-28.302-23.348-65.262-7.752-96.456 13.147-26.291 39.572-42.624 68.967-42.624s55.82 16.333 68.967 42.624c15.597 31.194 12.627 68.154-7.751 96.456l-42.876 59.55 45.805 63.016 54.171-89.79.222-.379c22.004-39.041 21.644-85.45-.965-124.144s-62.862-61.795-107.697-61.795l-9.876.014v-.014h-9.897c-44.815 0-85.068 23.101-107.675 61.795-22.609 38.695-22.969 85.103-.965 124.144l192.436 318.988 85.077-47.856z"/><path d="m256.979 89.069c18.62 0 35.859 7.59 48.224 20.789 2.304-13.195.425-27.02-5.812-39.494-8.084-16.168-24.336-26.212-42.412-26.212s-34.327 10.045-42.412 26.213c-6.238 12.477-8.117 26.304-5.81 39.502 12.364-13.203 29.601-20.798 48.222-20.798z"/><path d="m186.828 324.334-97.855 127.66 94.106 52.934 56.639-93.883z"/></g></g></svg>